PathFileType	4	(X/Y/Z)	C:/Users/beibeiliu/ov580/test_trc/User3\sequence.24_training_dense_right.trc
DataRate	CameraRate	NumFrames	NumMarkers	Units	OrigDataRate	OrigDataStartFrame	OrigNumFrames
120	120	24	19	mm	120	1	75
Frame#	Time	ThumbCMC			ThumbMCP			ThumbIP			ThumbTip			IndexMCP			IndexPIP			IndexTip			MiddleMCP			MiddlePIP			MiddleTip			RingMCP			RingPIP			RingTip			PinkyMCP			PinkyPIP			PinkyTip			BackHand1			BackHand2			BackHand3	
		X0	Y0	Z0	X1	Y1	Z1	X2	Y2	Z2	X3	Y3	Z3	X4	Y4	Z4	X5	Y5	Z5	X6	Y6	Z6	X7	Y7	Z7	X8	Y8	Z8	X9	Y9	Z9	X10	Y10	Z10	X11	Y11	Z11	X12	Y12	Z12	X13	Y13	Z13	X14	Y14	Z14	X15	Y15	Z15	X16	Y16	Z16	X17	Y17	Z17	X18	Y18	Z18	
0	0	130.409	13.7872	35.8013	109.248	4.36959	9.05787	101.764	-4.7713	-19.6537	100.603	-13.8882	-40.7742	144.806	30.7536	-39.7037	138.123	25.659	-68.9029	130.724	22.0803	-89.5248	173.632	26.8183	-44.6501	168.839	22.5523	-72.6873	169.277	11.599	-103.403	188.543	17.2139	-37.4162	190.947	13.9006	-63.3219	195.255	6.09799	-89.7968	204.443	6.65209	-21.1383	213.486	4.23649	-42.0482	222.186	0.516661	-61.163	188.788	27.3559	14.4865	189.175	29.6419	45.7145	157.627	36.7268	29.5586	
1	0.00833333	128.007	16.6923	30.2009	112.014	6.60503	10.1742	102.465	-1.95922	-21.2328	96.0839	-12.196	-39.6207	144.197	32.8086	-40.2412	135.606	30.0804	-69.011	133.462	22.408	-93.5409	169.18	30.2427	-44.5478	167.043	24.4471	-77.3205	167.255	14.0061	-106.149	185.747	20.6716	-40.6738	193.978	14.8424	-61.1964	192.135	7.08779	-90.5402	203.012	8.87336	-21.6556	212.787	6.24074	-45.1741	215.35	0.207273	-67.7341	187.964	29.1127	13.8718	188.873	30.192	44.5775	157.017	40.0747	26.0458	
2	0.0166667	126.421	16.843	35.6193	112.307	6.90609	7.90207	100.552	-1.53575	-20.4489	99.6049	-10.7154	-40.5476	144.487	34.3666	-40.3322	135.118	31.9417	-64.9829	134.412	24.3036	-90.1634	169.14	31.9334	-49.254	166.36	26.1968	-76.6986	166.618	12.9274	-106.847	188.27	22.2216	-38.8332	189.566	17.641	-61.9313	190.576	4.23807	-89.0361	203.333	12.5813	-22.8142	211.486	6.62743	-43.911	212.466	-1.90211	-65.4314	188.807	30.7191	13.3546	191.934	31.3679	42.5439	158.75	40.7746	28.3157	
3	0.025	125.838	17.8051	33.4359	110.269	7.20461	10.3211	103.232	-0.914051	-21.939	101.098	-11.4437	-42.6454	143.139	37.4076	-37.0199	135.891	32.3928	-68.0609	136.197	23.6058	-90.571	173.322	34.1185	-45.3121	170.027	26.6052	-76.4705	167.271	9.93115	-102.528	186.951	26.739	-38.9267	189.78	16.8879	-65.9033	183.96	-3.58527	-85.4341	202.83	13.9934	-20.7979	208.731	7.22733	-43.265	202.896	-13.5784	-65.7085	186.774	34.385	15.154	190.093	29.8126	46.7359	155.354	42.0459	26.5554	
4	0.0333333	127.19	21.0784	33.2794	115.177	9.02187	9.04722	108.241	0.953092	-21.6914	111.633	-9.82738	-44.4981	147.921	42.4772	-38.2388	139.213	38.9393	-63.9164	138.584	24.5326	-87.2565	170.412	40.1589	-39.5634	167.503	29.5739	-74.4554	160.986	9.25068	-96.754	186.808	27.4815	-32.5206	183.911	13.1884	-63.964	173.847	-16.2264	-71.2387	203.668	12.9794	-18.44	201.327	0.731771	-47.2016	186.097	-23.7754	-50.0818	189.398	34.4484	20.5047	195.432	31.1121	49.1209	162.99	42.5562	33.1477	
5	0.0416667	130.494	22.571	32.2885	121.412	10.144	7.23581	116.649	1.05002	-19.6801	123.041	-8.64178	-43.0051	148.084	47.049	-35.2267	146.039	40.0271	-64.8413	134.294	25.8846	-87.7347	174.791	42.7612	-38.6014	171.078	33.4718	-70.7524	158.522	9.39286	-91.0456	185.903	27.8231	-36.1327	183.447	7.36247	-58.6421	165.827	-18.0294	-51.0119	203.152	11.9188	-23.9019	193.719	-2.96158	-42.8723	174.568	-28.8265	-29.7122	195.753	34.2715	18.6011	194.775	31.4022	47.298	165.577	45.4317	30.9759	
6	0.05	134.259	23.1392	32.4268	120.308	11.5048	4.75344	120.753	1.67804	-27.3708	133.847	-9.94075	-46.5792	151.24	49.9471	-35.3987	142.993	44.4017	-65.0631	141.197	27.6401	-85.9877	173.644	47.6815	-39.6979	169.327	37.4353	-70.6619	157.827	10.4021	-90.8548	188.485	24.9068	-37.3504	179.096	0.561665	-53.2308	163.507	-20.3445	-33.7656	199.086	11.5251	-22.9341	187.079	-12.5534	-36.3744	170.61	-23.8991	-11.0861	194.279	38.3574	21.1282	193.742	32.4946	49.3478	164.819	47.6416	32.0143	
7	0.0583333	133.31	23.8802	34.5346	123.066	11.8636	1.11545	128.901	0.930785	-28.9502	148.957	-9.72861	-46.6311	151.99	53.5999	-37.0785	149.136	44.956	-67.1896	143.297	32.5509	-90.4985	176.139	48.0823	-42.7359	170.149	39.7621	-72.7527	161.272	13.6554	-97.8646	186.617	20.2887	-38.2842	174.937	-6.22254	-46.5951	158.419	-17.8676	-22.1786	197.87	9.48245	-23.3882	181.903	-12.9399	-31.6254	169.479	-21.199	-1.21123	195.296	41.8184	15.5297	195.274	33.683	50.1999	163.791	50.4081	34.1476	
8	0.0666667	136.846	23.501	27.4852	124.305	8.07425	-1.45855	134.259	-4.01974	-27.8064	155.192	-15.9745	-42.814	156.297	51.0879	-39.9792	153.181	48.6297	-67.2672	153.018	41.1849	-88.9662	177.66	46.1377	-43.4875	172.358	38.9692	-75.7938	165.284	27.5014	-99.396	184.177	18.7821	-35.2006	171.232	-9.15425	-42.3236	159.181	-17.8636	-9.04074	196.274	3.02882	-24.6637	176.232	-17.1939	-22.9408	171.947	-19.7689	6.13743	199.736	38.6337	15.2128	198.153	32.1351	45.8077	166.998	47.5921	32.5084	
9	0.075	133.771	19.9461	30.0797	126.433	0.976321	-3.45638	137.684	-11.9866	-28.9128	163.271	-22.0818	-41.0993	159.474	46.2703	-41.2746	153.723	45.6497	-64.6889	157.406	41.315	-92.2773	175.267	42.9537	-47.5579	174.154	36.6018	-75.7034	170.035	32.3354	-101.416	185.925	12.1412	-34.8315	171.779	-15.5603	-38.4088	160.994	-19.4579	-5.69861	198.383	-3.84729	-23.0664	178.132	-23.0366	-17.5286	169.718	-17.6494	10.9241	193.976	35.8335	16.1318	197.179	30.6999	43.9517	168.408	45.9628	31.6411	
10	0.0833333	138.945	16.472	25.6197	130.634	-4.23626	-7.55998	144.733	-19.9454	-31.8202	172.854	-26.5868	-38.2336	159.796	43.7538	-39.3065	158.884	42.4721	-69.5948	166.505	40.7955	-89.3432	180.985	38.8833	-47.1322	182.187	35.6681	-71.6808	179.961	33.0745	-101.391	190.867	6.19463	-36.6204	179.067	-20.6831	-35.7873	167.582	-21.7413	-3.60321	203.163	-6.4162	-20.5199	183.755	-24.9878	-14.6379	174.969	-16.2887	16.0162	195.639	35.5548	17.5831	196.432	32.7761	48.1199	166.886	42.2256	30.0144	
11	0.0916667	141.274	15.4153	25.7833	140.753	-3.03125	-6.73352	158.124	-18.3604	-35.1574	185.037	-25.3329	-40.5874	165.869	46.7189	-43.702	170.154	46.4086	-70.2768	175.038	45.6299	-94.6264	185.997	43.9473	-44.567	190.388	41.8956	-74.055	188.735	41.1504	-103.136	198.811	10.645	-36.8298	189.896	-17.8894	-36.309	174.683	-18.4545	-4.4722	205.683	-1.33892	-22.7427	191.208	-23.8013	-13.2436	184.194	-16.5184	14.9903	202.628	39.2312	12.7291	198.486	35.5474	45.9805	166.938	45.8802	23.6179	
12	0.1	146.549	17.9132	19.3805	149.498	-3.748	-10.7499	164.792	-19.9258	-32.4617	191.028	-27.0893	-39.5525	176.54	46.5336	-50.788	181.956	42.9211	-74.8662	183.493	40.926	-96.3834	197.091	43.8873	-52.9076	204.309	37.8427	-79.689	204.874	33.462	-107.017	207.625	8.91611	-38.6084	199.555	-21.0574	-33.6458	181.206	-19.4205	-6.40579	217.869	-2.50436	-22.6515	200.208	-22.2898	-15.2387	188.351	-15.3969	11.6283	208.607	43.5585	11.1032	204.047	38.8979	42.2045	173.969	50.0956	22.4966	
13	0.108333	155.242	16.7038	16.5762	151.627	-10.5595	-8.41682	167.11	-28.7507	-27.519	189.686	-40.7155	-31.7582	184.195	28.1627	-51.7471	187.642	20.4916	-77.8636	190.75	12.7331	-103.598	206.069	24.4962	-52.1417	207.251	14.6475	-78.6583	208.672	2.20991	-110.139	212.984	-8.22521	-36.4788	196.954	-31.2778	-31.5023	184.947	-29.0403	-2.14471	223.005	-14.016	-16.9899	201.112	-33.1119	-7.17243	188.476	-22.6327	12.8548	213.029	35.4953	9.10019	210.05	37.6335	36.5079	179.581	47.318	15.8534	
14	0.116667	152.271	16.9363	18.9797	139.03	-12.8709	0.234334	150.893	-37.606	-16.5008	176.642	-54.8017	-20.4067	178.173	9.17903	-55.3167	178.61	-5.8684	-76.6614	176.642	-15.4864	-96.5685	194.097	0.0133615	-53.7355	194.519	-15.5156	-74.2645	188.253	-32.3646	-102.258	201.107	-28.6104	-29.3013	179.891	-48.9103	-16.248	169.856	-31.3712	10.13	208.87	-33.1172	-10.7226	188.306	-48.7107	2.42919	177.061	-26.6077	24.4977	216.622	17.2536	5.96917	212.154	29.0999	34.3121	185.127	36.939	9.3093	
15	0.125	149.962	24.8675	21.9524	128.188	-1.83418	9.88444	124.909	-31.0281	-2.5113	140.659	-54.2921	-3.20343	164.821	-2.06155	-49.2931	155.73	-17.8133	-69.6085	150.255	-29.4852	-87.4793	175.881	-19.9521	-48.5604	163.353	-34.266	-68.4733	152.336	-48.9709	-88.2561	171.434	-39.7764	-21.5726	152.215	-54.7054	-4.23862	149.773	-30.5313	22.7597	181.505	-48.5151	-0.894092	158.389	-50.918	15.1585	158.289	-26.0575	33.7523	211.37	-2.07263	8.57695	215.431	10.5604	33.1506	188.821	29.418	12.5452	
16	0.133333	155.317	32.3147	27.7262	120.545	17.2998	16.4427	109.677	-12.6925	7.24046	113.268	-38.9023	9.72349	151.27	-1.83761	-43.4834	136.187	-11.481	-61.1493	125.041	-27.828	-77.6978	157.043	-20.0071	-39.1854	137.947	-31.3668	-56.2091	120.217	-47.2694	-73.3187	149.034	-34.9908	-10.9521	121.118	-36.5993	7.81943	130.759	-13.7696	31.1729	154.223	-46.9002	9.1214	130.708	-34.8835	25.6115	142.865	-13.256	41.9689	197.956	-13.0992	12.654	209.776	-1.49247	38.9809	190.754	22.2337	15.804	
17	0.141667	160.68	43.2666	27.6638	124.43	35.619	19.4206	99.8136	19.0343	13.9513	93.9796	-7.27835	15.7161	143.918	5.3062	-38.5574	126.069	0.179291	-55.509	109.909	-6.90762	-70.0591	140.34	-14.7311	-35.0174	118.272	-19.3168	-52.4112	96.3205	-21.9985	-70.3554	126.918	-19.5639	-7.27258	104.053	-11.6645	15.3733	119.599	7.10127	33.5582	127.889	-29.4438	12.665	112.885	-13.0802	31.0586	129.692	0.363444	50.5311	183.908	-18.8445	16.7698	200.645	-9.19304	43.7198	190.737	20.6686	16.8192	
18	0.15	172.038	52.4751	31.3849	133.139	55.9065	18.5332	104.227	48.195	12.9146	87.9027	22.787	13.5111	145.822	21.0539	-37.1312	127.285	18.7956	-53.7926	105.866	13.5866	-71.2309	134.76	2.13378	-36.7114	114.843	1.16183	-49.8571	87.8664	2.33608	-69.8694	119.012	-4.65295	-4.83609	96.7521	14.279	8.47982	118.482	27.4977	33.211	117.516	-11.7784	12.9424	104.372	11.858	28.7033	121.907	17.7934	47.8837	171.38	-13.1736	16.0211	187.079	-9.28028	44.0544	190.001	15.1292	18.807	
19	0.158333	180.633	51.8428	28.5332	148.355	64.1955	14.1499	120.89	64.198	6.54726	96.971	47.2295	5.74803	153.895	27.4532	-36.3905	136.505	30.2976	-58.2587	121.06	32.9067	-76.0293	134.639	9.43483	-37.1799	117.817	17.4577	-56.303	97.285	25.7349	-78.8789	115.658	15.1501	-11.5798	102.739	39.2613	1.67303	126.011	42.7126	27.9772	114.891	6.05362	7.90905	102.95	30.0691	19.9894	126.537	37.0363	40.9238	163.114	-10.2404	14.567	176.227	-13.0193	43.1881	189.985	11.0018	22.2773	
20	0.166667	190.556	42.5323	26.4321	170.204	64.4779	9.12835	141.05	72.2727	-7.83565	118.197	54.8682	-7.18169	166.284	19.0593	-40.1413	158.041	26.3891	-64.8396	144.499	29.9466	-84.6358	152.777	9.30516	-40.5577	138.296	16.4255	-62.591	124.4	28.7746	-92.5002	128.991	20.3515	-21.1688	119.235	48.2718	-9.83511	133.572	47.9714	18.3053	116.65	13.2702	-1.66807	111.383	38.6437	6.85969	130.486	41.9534	32.1284	160.905	-15.8308	20.0791	171.603	-17.4817	47.5901	194.508	5.61572	18.2331	
21	0.175	208.752	33.9821	25.2588	189.23	53.0126	1.03947	166.859	62.628	-20.5679	142.675	52.5628	-22.9001	193.291	5.05909	-45.1257	190.663	8.71104	-65.9947	179.286	11.1202	-93.4369	176.347	-3.69435	-45.8462	171.409	4.81453	-72.8573	162.017	10.8041	-100.238	149.618	11.9921	-29.941	142.252	38.7151	-25.0855	153.722	44.5161	6.93754	136.763	9.94895	-14.7947	135.956	35.8695	-8.98571	149.622	40.2888	17.368	177.248	-20.2955	18.7899	178.581	-19.8141	48.3289	205.126	-7.3845	26.5144	
22	0.183333	229.86	29.033	28.629	216.688	46.1004	1.00851	196.965	46.7111	-28.7687	173.861	35.7029	-35.4284	234.629	-8.71672	-39.1336	233.024	-7.58783	-64.6227	228.669	-9.06308	-88.1759	214.309	-18.1879	-39.8066	213.883	-14.171	-69.3567	213.505	-8.8771	-102.831	186.762	-3.6309	-31.8614	177.263	26.8928	-35.1687	179.634	35.2603	-1.00897	174.443	-1.6384	-22.964	164.792	23.4502	-20.3358	176.132	33.0445	7.68116	203.236	-28.1212	16.6848	199.598	-21.4259	51.8791	228.963	-10.8835	30.0081	
23	0.191667	245.256	36.9971	34.3441	232.452	47.0676	0.025484	217.848	42.4126	-25.7481	197.957	28.0559	-41.8176	265.698	-6.64837	-25.2632	273.694	-7.24776	-54.2551	270.548	-11.5876	-77.1717	254.471	-17.6419	-31.4666	256.199	-17.6812	-61.7372	260.324	-15.3396	-91.2141	220.73	-7.89684	-31.0867	202.035	18.2181	-35.8546	204.614	30.0355	-2.94712	204.288	-10.7817	-23.4572	194.704	12.3809	-26.4893	193.261	22.6909	5.24	229.181	-27.2675	21.6047	221.256	-21.9113	55.8221	251.222	-4.05957	41.9618	
